<?xml version="1.0" encoding="UTF-8"?>
<svg xmlns="http://www.w3.org/2000/svg" xmlns:xlink="http://www.w3.org/1999/xlink" width="72" height="72" viewBox="0 0 72 72">
<path fill-rule="nonzero" fill="rgb(188, 171, 131)" fill-opacity="1" d="M 35.398438 41.945312 C 33.175781 42.707031 30.800781 42.9375 28.496094 43.164062 C 27.640625 43.246094 26.757812 43.332031 25.898438 43.445312 C 25.324219 43.519531 24.769531 43.609375 24.277344 43.84375 C 24.039062 43.960938 23.878906 44.085938 23.785156 44.230469 C 23.6875 44.382812 23.671875 44.570312 23.746094 44.691406 C 23.792969 44.761719 23.882812 44.832031 24.023438 44.894531 C 24.179688 44.96875 24.40625 45.042969 24.621094 45 C 24.789062 44.964844 24.929688 44.839844 24.949219 44.703125 C 24.957031 44.664062 24.957031 44.621094 24.957031 44.582031 C 24.957031 44.484375 24.957031 44.363281 25.007812 44.242188 C 25.140625 43.9375 25.464844 43.804688 25.992188 43.859375 C 27.878906 44.050781 29.960938 43.820312 32.546875 43.132812 C 33.265625 42.941406 33.859375 42.757812 34.417969 42.488281 C 34.738281 42.335938 35.058594 42.148438 35.367188 41.964844 C 35.378906 41.960938 35.386719 41.953125 35.398438 41.945312 M 24.542969 49.945312 C 24.871094 49.984375 25.179688 49.789062 25.363281 49.585938 C 25.574219 49.351562 25.757812 48.953125 25.585938 48.585938 L 25.585938 48.578125 L 25.8125 48.472656 L 25.765625 48.230469 C 25.832031 48.210938 26.25 48.050781 28.28125 47.199219 L 28.429688 47.136719 C 29.4375 46.710938 30.316406 46.316406 31.113281 45.933594 C 32.066406 45.476562 32.90625 45.03125 33.691406 44.574219 C 34.574219 44.058594 35.359375 43.535156 36.097656 42.980469 C 36.351562 42.792969 36.601562 42.59375 36.84375 42.394531 C 36.925781 42.324219 37.007812 42.257812 37.089844 42.1875 C 36.921875 42.289062 36.761719 42.40625 36.601562 42.519531 C 36.464844 42.617188 36.328125 42.714844 36.191406 42.804688 C 35.492188 43.261719 34.769531 43.707031 34.042969 44.125 C 32.585938 44.96875 31.070312 45.730469 29.542969 46.390625 C 28.933594 46.652344 28.320312 46.902344 27.71875 47.132812 L 27.539062 47.199219 C 26.839844 47.464844 26.117188 47.738281 25.535156 48.191406 C 25.046875 48.574219 24.550781 49.21875 24.542969 49.945312 M 32.824219 52.703125 C 32.902344 52.804688 33.03125 52.878906 33.179688 52.902344 C 33.375 52.929688 33.546875 52.878906 33.648438 52.761719 C 33.75 52.648438 33.785156 52.46875 33.738281 52.285156 C 33.691406 52.101562 33.574219 51.964844 33.425781 51.914062 L 33.503906 51.675781 L 33.304688 51.53125 C 33.367188 51.429688 33.742188 50.609375 33.882812 50.300781 L 34.726562 48.507812 L 36.777344 44.175781 C 36.664062 44.367188 36.550781 44.554688 36.441406 44.746094 C 35.925781 45.636719 35.4375 46.550781 34.992188 47.464844 C 34.539062 48.386719 34.113281 49.332031 33.734375 50.269531 C 33.410156 51.066406 33.101562 51.886719 32.824219 52.703125 M 33.210938 50.230469 C 32.445312 51.839844 32.015625 53.652344 31.597656 55.417969 C 31.441406 56.082031 31.285156 56.742188 31.113281 57.382812 C 30.808594 58.511719 30.574219 59.601562 31.023438 60.503906 C 31.527344 61.523438 33.136719 62.8125 34.238281 63.285156 C 35.90625 64 37.730469 64.261719 39.519531 64.039062 C 40.773438 63.882812 41.613281 63.453125 42.007812 62.769531 C 42.191406 62.457031 42.28125 62.078125 42.367188 61.714844 L 42.410156 61.535156 C 43.136719 58.464844 43.824219 55.5625 43.246094 52.492188 C 43.09375 51.691406 42.863281 50.886719 42.636719 50.109375 C 42.449219 49.460938 42.25 48.789062 42.105469 48.117188 C 41.773438 46.621094 41.664062 45.558594 42.179688 45.242188 C 42.617188 44.972656 43.195312 45.449219 43.386719 45.609375 C 44.441406 46.476562 45.417969 47.832031 46 49.238281 C 46.449219 50.3125 46.640625 51.46875 46.828125 52.589844 C 46.941406 53.269531 47.058594 53.972656 47.230469 54.644531 C 47.761719 56.714844 48.933594 58.175781 50.363281 58.554688 C 50.933594 58.703125 51.546875 58.6875 52.144531 58.675781 C 53.679688 58.640625 55.21875 58.261719 56.707031 57.894531 C 57.105469 57.796875 57.5 57.699219 57.898438 57.605469 C 58.191406 57.539062 58.472656 57.449219 58.566406 57.257812 C 58.621094 57.148438 58.617188 56.992188 58.613281 56.855469 L 58.527344 51.160156 C 58.507812 49.976562 58.488281 48.628906 57.960938 47.5 C 57.472656 46.464844 56.574219 45.644531 55.757812 44.984375 C 55.171875 44.511719 54.472656 43.980469 53.6875 43.625 C 52.230469 42.964844 50.554688 42.921875 48.9375 42.878906 C 48.671875 42.871094 48.40625 42.863281 48.144531 42.855469 C 47.097656 42.816406 42.609375 42.320312 41.363281 40.726562 C 41.078125 40.359375 40.976562 39.957031 41.066406 39.535156 C 41.15625 39.109375 41.480469 38.738281 42.03125 38.429688 C 42.820312 37.992188 43.703125 37.785156 44.554688 37.582031 C 45.394531 37.386719 46.191406 37.199219 46.90625 36.808594 C 48.378906 36.011719 49.460938 34.308594 49.800781 32.25 C 50.117188 30.363281 49.84375 28.417969 49.582031 26.535156 C 49.464844 25.722656 49.289062 24.820312 48.640625 24.433594 C 48.230469 24.1875 47.683594 24.1875 47.207031 24.195312 L 46.953125 24.199219 C 44.066406 24.230469 41.984375 24.253906 40.011719 26.578125 C 38.5 28.367188 37.765625 30.640625 37.246094 32.632812 C 37.054688 33.367188 36.867188 34.15625 36.765625 34.9375 C 36.65625 35.792969 36.671875 36.523438 36.8125 37.167969 C 36.96875 37.90625 37.320312 38.574219 37.824219 39.101562 C 37.929688 39.214844 38.027344 39.296875 38.136719 39.371094 C 38.179688 39.398438 38.238281 39.4375 38.289062 39.503906 C 38.371094 39.617188 38.386719 39.757812 38.332031 39.871094 C 38.269531 40 38.140625 40.050781 38.097656 40.066406 C 38.003906 40.101562 37.917969 40.117188 37.824219 40.125 C 35.648438 40.386719 33.433594 40.449219 31.25 40.320312 C 29.859375 40.238281 28.429688 40.035156 27.375 39.140625 C 26.933594 38.765625 26.554688 38.4375 26.238281 38.476562 C 26.617188 39.121094 27.3125 39.65625 28.1875 39.960938 C 29.085938 40.277344 30.074219 40.34375 31.027344 40.40625 L 31.035156 40.40625 C 31.152344 40.40625 31.289062 40.417969 31.421875 40.429688 L 34.789062 40.65625 C 35.09375 40.679688 35.378906 40.695312 35.664062 40.679688 C 35.847656 40.667969 36.042969 40.640625 36.277344 40.59375 C 36.488281 40.550781 36.699219 40.496094 36.910156 40.445312 C 37.050781 40.410156 37.195312 40.371094 37.335938 40.339844 C 37.453125 40.3125 37.632812 40.269531 37.820312 40.351562 L 38.058594 40.449219 L 37.949219 40.6875 C 37.878906 40.828125 37.75 40.933594 37.570312 41.03125 C 37.648438 41.019531 37.726562 41.011719 37.804688 41.007812 L 37.820312 41.257812 L 37.984375 41.441406 C 37.957031 41.472656 37.90625 41.542969 37.859375 41.609375 L 38.066406 41.546875 L 38.109375 41.734375 L 38.210938 41.714844 L 38.40625 41.714844 L 38.484375 41.941406 C 38.539062 42.144531 38.515625 42.355469 38.5 42.542969 C 38.492188 42.601562 38.488281 42.660156 38.484375 42.71875 C 38.46875 43 38.449219 43.28125 38.425781 43.566406 C 38.382812 44.128906 38.320312 44.691406 38.25 45.25 C 38.136719 46.117188 38 46.980469 37.867188 47.84375 L 36.828125 54.511719 L 36.496094 54.277344 C 36.355469 54.175781 36.195312 54.28125 36.148438 54.3125 C 36.003906 54.410156 35.886719 54.597656 35.929688 54.769531 C 35.984375 54.960938 36.144531 55.0625 36.234375 55.109375 C 36.441406 55.210938 36.691406 55.21875 36.886719 55.136719 C 37.246094 54.980469 37.523438 54.585938 37.625 54.074219 C 37.699219 53.679688 37.675781 53.273438 37.652344 52.839844 L 37.636719 52.554688 C 37.558594 50.785156 37.859375 48.996094 38.148438 47.265625 C 38.550781 44.847656 38.933594 42.5625 38.382812 40.289062 L 38.871094 40.171875 C 39.445312 42.542969 39.035156 44.984375 38.640625 47.347656 C 38.355469 49.050781 38.058594 50.8125 38.136719 52.53125 L 38.152344 52.8125 C 38.175781 53.257812 38.203125 53.714844 38.113281 54.171875 C 37.980469 54.847656 37.59375 55.378906 37.082031 55.59375 C 36.75 55.734375 36.347656 55.722656 36.011719 55.558594 C 35.722656 55.414062 35.523438 55.179688 35.449219 54.898438 C 35.355469 54.539062 35.519531 54.140625 35.863281 53.902344 C 36.046875 53.773438 36.253906 53.71875 36.441406 53.738281 L 37.375 47.765625 C 37.507812 46.90625 37.640625 46.050781 37.75 45.1875 C 37.824219 44.632812 37.882812 44.078125 37.929688 43.523438 C 37.949219 43.285156 37.964844 43.050781 37.976562 42.8125 L 34.339844 50.507812 C 34.105469 51.019531 33.949219 51.355469 33.839844 51.574219 C 34.023438 51.710938 34.15625 51.914062 34.222656 52.15625 C 34.3125 52.507812 34.238281 52.855469 34.019531 53.097656 C 33.800781 53.339844 33.460938 53.453125 33.105469 53.394531 C 32.75 53.339844 32.457031 53.132812 32.324219 52.832031 L 32.285156 52.746094 L 32.316406 52.652344 C 32.589844 51.839844 32.890625 51.023438 33.210938 50.230469 M 38.273438 64.613281 C 36.828125 64.613281 35.382812 64.320312 34.042969 63.742188 C 32.855469 63.234375 31.140625 61.871094 30.574219 60.726562 C 30.046875 59.664062 30.300781 58.476562 30.628906 57.25 C 30.800781 56.617188 30.957031 55.960938 31.113281 55.300781 C 31.582031 53.3125 32.070312 51.261719 33.03125 49.476562 C 31.589844 51.507812 29.660156 53.144531 27.527344 54.128906 C 26.652344 54.535156 25.730469 54.828125 24.785156 55.007812 C 21.613281 55.601562 18.414062 54.648438 16.621094 52.578125 C 15.570312 51.371094 15.035156 49.65625 15.179688 47.992188 C 15.308594 46.542969 15.941406 45.292969 16.957031 44.472656 C 17.011719 44.429688 17.066406 44.386719 17.121094 44.347656 C 18.050781 43.65625 19.089844 43.382812 20.078125 43.160156 C 20.945312 42.96875 21.800781 42.753906 22.660156 42.539062 L 23.476562 42.335938 C 24.453125 42.09375 25.441406 41.910156 26.398438 41.734375 C 26.972656 41.632812 27.5625 41.523438 28.152344 41.402344 C 26.339844 41.230469 24.4375 40.546875 22.351562 39.324219 C 20.652344 38.324219 18.953125 37.140625 18.023438 35.253906 C 17.378906 33.949219 17.1875 32.492188 17.085938 31.242188 C 16.96875 29.855469 16.910156 28.054688 17.460938 26.402344 C 18.042969 24.664062 19.261719 23.328125 20.726562 22.824219 C 22.023438 22.375 23.578125 22.550781 24.988281 23.304688 C 26.089844 23.890625 27.105469 24.792969 28.1875 26.148438 C 29.289062 27.523438 30.074219 28.851562 30.589844 30.210938 C 30.765625 30.667969 30.914062 31.140625 31.058594 31.601562 C 31.359375 32.566406 31.640625 33.476562 32.160156 34.289062 C 32.9375 35.511719 34.207031 36.390625 35.371094 37.160156 C 35.609375 36.515625 35.523438 35.898438 35.417969 35.136719 L 35.367188 34.734375 C 35.011719 31.878906 33.992188 29.09375 32.414062 26.6875 L 32.34375 26.582031 C 31.753906 25.679688 31.082031 24.660156 31.351562 23.554688 C 31.6875 22.175781 33.242188 21.636719 34.488281 21.207031 L 34.660156 21.148438 C 36.445312 20.527344 38.128906 19.53125 39.53125 18.261719 C 40.074219 17.773438 40.714844 17.109375 40.875 16.292969 C 41.214844 14.566406 39.371094 13.191406 38.796875 12.8125 C 36.382812 11.21875 33.375 10.605469 30.527344 11.144531 C 29.535156 11.332031 28.550781 11.65625 27.601562 11.96875 C 26.433594 12.355469 25.230469 12.757812 23.980469 12.914062 C 22.9375 13.046875 21.472656 13.011719 20.464844 12.109375 C 19.929688 11.628906 19.621094 10.839844 19.675781 10.09375 C 19.71875 9.484375 19.996094 8.980469 20.457031 8.675781 C 20.71875 8.5 21.027344 8.390625 21.324219 8.285156 C 21.898438 8.082031 22.253906 7.933594 22.339844 7.578125 L 22.828125 7.695312 C 22.667969 8.34375 22.042969 8.5625 21.492188 8.757812 C 21.222656 8.855469 20.941406 8.953125 20.730469 9.09375 C 20.40625 9.308594 20.207031 9.675781 20.171875 10.132812 C 20.128906 10.726562 20.375 11.355469 20.796875 11.734375 C 21.667969 12.511719 22.972656 12.535156 23.917969 12.417969 C 25.117188 12.265625 26.300781 11.875 27.445312 11.496094 C 28.410156 11.175781 29.410156 10.84375 30.433594 10.652344 C 33.40625 10.09375 36.554688 10.730469 39.074219 12.394531 C 39.710938 12.820312 41.765625 14.355469 41.367188 16.390625 C 41.175781 17.351562 40.464844 18.09375 39.867188 18.636719 C 38.417969 19.945312 36.671875 20.976562 34.824219 21.621094 L 34.652344 21.679688 C 33.460938 22.09375 32.109375 22.558594 31.835938 23.675781 C 31.621094 24.566406 32.203125 25.453125 32.761719 26.308594 L 32.832031 26.414062 C 34.449219 28.882812 35.5 31.742188 35.863281 34.675781 L 35.914062 35.070312 C 36.035156 35.941406 36.148438 36.765625 35.703125 37.644531 L 35.578125 37.894531 L 35.34375 37.742188 C 34.070312 36.90625 32.628906 35.957031 31.738281 34.558594 C 31.183594 33.691406 30.875 32.703125 30.582031 31.75 C 30.441406 31.300781 30.292969 30.832031 30.125 30.386719 C 29.625 29.078125 28.863281 27.792969 27.796875 26.460938 C 26.757812 25.160156 25.792969 24.300781 24.753906 23.746094 C 23.464844 23.058594 22.054688 22.894531 20.886719 23.296875 C 19.574219 23.75 18.46875 24.96875 17.9375 26.558594 C 17.414062 28.128906 17.472656 29.863281 17.582031 31.199219 C 17.679688 32.40625 17.867188 33.804688 18.46875 35.03125 C 19.34375 36.804688 20.972656 37.933594 22.605469 38.890625 C 24.820312 40.191406 26.8125 40.859375 28.699219 40.9375 C 28.890625 40.945312 29.132812 41.050781 29.21875 41.238281 C 29.273438 41.359375 29.253906 41.496094 29.167969 41.601562 C 29.085938 41.707031 28.960938 41.734375 28.90625 41.75 C 28.097656 41.933594 27.28125 42.082031 26.488281 42.226562 C 25.539062 42.402344 24.554688 42.582031 23.597656 42.820312 L 22.78125 43.023438 C 21.917969 43.238281 21.054688 43.457031 20.1875 43.648438 C 19.214844 43.867188 18.269531 44.113281 17.417969 44.75 L 17.269531 44.863281 C 16.359375 45.597656 15.796875 46.722656 15.679688 48.035156 C 15.542969 49.570312 16.035156 51.144531 16.996094 52.25 C 18.675781 54.1875 21.695312 55.078125 24.691406 54.515625 C 25.597656 54.34375 26.480469 54.0625 27.320312 53.675781 C 29.558594 52.640625 31.574219 50.851562 32.996094 48.636719 C 33.050781 48.546875 33.21875 48.265625 33.523438 48.320312 C 33.695312 48.34375 33.832031 48.480469 33.882812 48.652344 C 34.09375 48.179688 34.3125 47.707031 34.542969 47.242188 C 34.996094 46.320312 35.488281 45.394531 36.007812 44.496094 C 36.269531 44.046875 36.539062 43.601562 36.8125 43.164062 C 36.855469 43.09375 36.898438 43.027344 36.941406 42.960938 C 36.761719 43.101562 36.582031 43.242188 36.398438 43.382812 C 35.644531 43.949219 34.84375 44.480469 33.945312 45.007812 C 33.148438 45.472656 32.292969 45.921875 31.332031 46.386719 C 30.527344 46.769531 29.640625 47.167969 28.625 47.597656 L 28.472656 47.660156 C 27.195312 48.199219 26.507812 48.488281 26.125 48.621094 C 26.21875 49.050781 26.078125 49.539062 25.734375 49.921875 C 25.320312 50.382812 24.726562 50.5625 24.21875 50.382812 L 24.070312 50.328125 L 24.054688 50.167969 C 23.96875 49.335938 24.421875 48.425781 25.230469 47.796875 C 25.867188 47.300781 26.628906 47.011719 27.363281 46.734375 L 27.542969 46.664062 C 28.132812 46.4375 28.742188 46.191406 29.339844 45.933594 C 30.855469 45.277344 32.351562 44.523438 33.792969 43.691406 C 34.511719 43.277344 35.226562 42.839844 35.917969 42.386719 C 36.050781 42.300781 36.179688 42.207031 36.3125 42.113281 C 36.488281 41.988281 36.667969 41.859375 36.851562 41.746094 C 36.4375 41.914062 36.035156 42.152344 35.621094 42.394531 C 35.300781 42.582031 34.972656 42.777344 34.632812 42.941406 C 34.003906 43.242188 33.320312 43.445312 32.675781 43.613281 C 30.03125 44.316406 27.886719 44.554688 25.941406 44.359375 C 25.679688 44.332031 25.503906 44.363281 25.46875 44.4375 C 25.457031 44.46875 25.457031 44.527344 25.457031 44.589844 C 25.457031 44.652344 25.453125 44.714844 25.445312 44.777344 C 25.394531 45.117188 25.09375 45.410156 24.722656 45.488281 C 24.445312 45.550781 24.136719 45.503906 23.8125 45.347656 C 23.582031 45.242188 23.425781 45.117188 23.324219 44.957031 C 23.144531 44.667969 23.160156 44.277344 23.367188 43.960938 C 23.507812 43.734375 23.738281 43.550781 24.0625 43.394531 C 24.621094 43.125 25.21875 43.03125 25.835938 42.949219 C 26.703125 42.839844 27.589844 42.75 28.449219 42.667969 C 30.917969 42.425781 33.46875 42.175781 35.789062 41.273438 C 35.910156 41.226562 36.03125 41.175781 36.148438 41.125 C 35.988281 41.152344 35.835938 41.167969 35.695312 41.179688 C 35.378906 41.203125 35.0625 41.175781 34.753906 41.152344 L 31.375 40.925781 C 31.253906 40.914062 31.132812 40.90625 31.011719 40.90625 C 30.007812 40.839844 28.988281 40.769531 28.023438 40.433594 C 26.921875 40.050781 26.0625 39.332031 25.667969 38.460938 L 25.589844 38.285156 L 25.738281 38.164062 C 26.378906 37.636719 27.15625 38.292969 27.667969 38.730469 C 28.640625 39.558594 29.976562 39.742188 31.28125 39.820312 C 33.40625 39.949219 35.554688 39.886719 37.667969 39.640625 C 37.597656 39.582031 37.53125 39.519531 37.460938 39.445312 C 36.894531 38.851562 36.5 38.101562 36.324219 37.273438 C 36.171875 36.574219 36.152344 35.789062 36.269531 34.875 C 36.375 34.0625 36.566406 33.257812 36.761719 32.507812 C 37.292969 30.460938 38.050781 28.121094 39.632812 26.253906 C 41.75 23.757812 44.042969 23.730469 46.945312 23.699219 L 47.199219 23.695312 C 47.71875 23.6875 48.363281 23.683594 48.898438 24.003906 C 49.734375 24.507812 49.945312 25.539062 50.078125 26.464844 C 50.34375 28.382812 50.621094 30.367188 50.296875 32.332031 C 49.929688 34.539062 48.753906 36.378906 47.144531 37.25 C 46.371094 37.667969 45.503906 37.871094 44.671875 38.070312 C 43.8125 38.273438 43 38.464844 42.273438 38.867188 C 41.855469 39.101562 41.613281 39.359375 41.554688 39.636719 C 41.496094 39.914062 41.5625 40.171875 41.757812 40.417969 C 42.789062 41.742188 46.875 42.308594 48.164062 42.355469 C 48.421875 42.363281 48.6875 42.371094 48.949219 42.378906 C 50.617188 42.421875 52.34375 42.46875 53.894531 43.167969 C 54.730469 43.546875 55.464844 44.101562 56.070312 44.59375 C 56.929688 45.292969 57.882812 46.160156 58.414062 47.285156 C 58.988281 48.515625 59.007812 49.917969 59.027344 51.152344 L 59.113281 56.847656 C 59.117188 57.03125 59.121094 57.257812 59.019531 57.472656 C 58.808594 57.910156 58.289062 58.03125 58.011719 58.09375 C 57.617188 58.183594 57.21875 58.28125 56.828125 58.382812 C 55.3125 58.753906 53.746094 59.140625 52.15625 59.175781 C 51.554688 59.1875 50.875 59.207031 50.234375 59.039062 C 47.921875 58.425781 47.023438 55.847656 46.746094 54.769531 C 46.570312 54.078125 46.449219 53.363281 46.335938 52.671875 C 46.152344 51.582031 45.964844 50.453125 45.539062 49.429688 C 44.992188 48.117188 44.046875 46.800781 43.066406 45.992188 C 42.667969 45.660156 42.480469 45.648438 42.441406 45.667969 C 42.367188 45.714844 42.15625 46.019531 42.589844 48.007812 C 42.738281 48.667969 42.929688 49.328125 43.117188 49.96875 C 43.34375 50.761719 43.582031 51.574219 43.738281 52.402344 C 44.335938 55.574219 43.605469 58.664062 42.898438 61.648438 L 42.855469 61.828125 C 42.757812 62.230469 42.660156 62.644531 42.441406 63.019531 C 41.960938 63.847656 41 64.355469 39.582031 64.535156 C 39.148438 64.589844 38.710938 64.613281 38.273438 64.613281 "/>
</svg>
